<?xml version="1.0" encoding="iso-8859-1"?>
<!-- Generator: Adobe Illustrator 29.2.1, SVG Export Plug-In . SVG Version: 9.03 Build 55982)  -->
<svg version="1.1" id="drawing" xmlns="http://www.w3.org/2000/svg" xmlns:xlink="http://www.w3.org/1999/xlink" x="0px" y="0px"
	 viewBox="0 0 1280 1024" style="enable-background:new 0 0 1280 1024;" xml:space="preserve">
<path style="fill:none;stroke:#000000;stroke-miterlimit:10;" d="M499.5,318.5c8.079-2.484,21.847-7.913,35-20
	c5.258-4.832,22.308-20.896,27-46c3.906-20.897-5.078-24.891,0-43c6.699-23.887,27.719-36.15,31-38c3.478-1.961,23.583-12.888,48-7
	c29.816,7.19,57.913,37.49,51,59c-3.803,11.833-17.544,18.964-29,20c-21.225,1.919-41.298-16.484-43-36
	c-2.097-24.039,24.362-41.946,45-45c30.896-4.571,58.851,22.649,67,49c0.439,1.421,9.157,31.058-6,53
	c-5.105,7.391-7.778,6.466-12,13c-11.309,17.502-6.755,46.776,8,66c16.434,21.411,48.361,34.056,73,23
	c11.808-5.299,27.891-18.71,27-36c-0.663-12.864-10.579-25.14-22-29c-28.542-9.646-78.995,29.052-77,66
	c1.944,36.009,53.037,58.003,60,61c21.92,9.436,32.661,6.077,57,18c29.103,14.257,39.396,22.151,44,33
	c4.347,10.244,3.466,19.605,3,24c-2.709,25.56-24.608,55.695-54,57c-15.786,0.701-40.593-6.609-45-26
	c-4.505-19.823,14.441-42.896,30-42c10.705,0.616,17.74,12.46,24,23c6.902,11.62,20.478,34.478,10,57
	c-3.058,6.573-8.017,12.605-35,27c-42.221,22.524-71.07,37.915-84,27c-9.905-8.361,0.624-22.796-11-40
	c-10.326-15.284-31.096-22.336-48-21c-37.474,2.962-65.283,47.888-57,64c4.056,7.89,17.727,10.737,27,7
	c16.017-6.455,22.478-32.691,15-50c-9.719-22.496-42.447-28.634-65-23c-38.46,9.608-49.823,54.076-51,59
	c-1.913,8.005-11.167,43.641,11,67c18.905,19.921,54.673,24.676,65,12c5.667-6.957,4.432-20.095-2-26
	c-10.146-9.315-33.388-0.778-46,12c-10.549,10.688-17.545,28.279-13,44c8.016,27.727,49.063,39.706,77,33
	c18.038-4.33,38.966-18.454,52-36c5.554-7.476,9.948-15.942,21-23c6.321-4.037,16.109-11.153,28-9c7.704,1.395,12.759,5.935,15,8
	c12.813,11.805,21.073,36.84,10,48c-12.227,12.323-26,14-38,0c-2.636-3.076-5.562-19.466,12-34c29-24,60.23-29.662,69-29
	c53,4,61.756,42.227,65,47"/>
</svg>
